<?xml version="1.0" encoding="UTF-8" standalone="no"?>
<svg
   xmlns:dc="http://purl.org/dc/elements/1.1/"
   xmlns:cc="http://creativecommons.org/ns#"
   xmlns:rdf="http://www.w3.org/1999/02/22-rdf-syntax-ns#"
   xmlns:svg="http://www.w3.org/2000/svg"
   xmlns="http://www.w3.org/2000/svg"
   xmlns:sodipodi="http://sodipodi.sourceforge.net/DTD/sodipodi-0.dtd"
   xmlns:inkscape="http://www.inkscape.org/namespaces/inkscape"
   inkscape:version="1.0rc1 (09960d6, 2020-04-09)"
   sodipodi:docname="m2.svg"
   viewBox="0 0 16 16"
   height="16"
   width="16"
   id="svg6115"
   version="1.1">
  <metadata
     id="metadata6121">
    <rdf:RDF>
      <cc:Work
         rdf:about="">
        <dc:format>image/svg+xml</dc:format>
        <dc:type
           rdf:resource="http://purl.org/dc/dcmitype/StillImage" />
        <dc:title></dc:title>
      </cc:Work>
    </rdf:RDF>
  </metadata>
  <defs
     id="defs6119" />
  <sodipodi:namedview
     inkscape:current-layer="g6123"
     inkscape:window-maximized="1"
     inkscape:window-y="23"
     inkscape:window-x="1680"
     inkscape:cy="4.0625"
     inkscape:cx="12.847656"
     inkscape:zoom="34.638743"
     inkscape:snap-nodes="false"
     inkscape:bbox-nodes="true"
     inkscape:bbox-paths="true"
     inkscape:snap-bbox="true"
     showgrid="true"
     id="namedview6117"
     inkscape:window-height="1035"
     inkscape:window-width="1920"
     inkscape:pageshadow="2"
     inkscape:pageopacity="0"
     guidetolerance="10"
     gridtolerance="10"
     objecttolerance="10"
     borderopacity="1"
     bordercolor="#666666"
     pagecolor="#ffffff">
    <inkscape:grid
       id="grid6688"
       type="xygrid" />
  </sodipodi:namedview>
  <g
     id="g6123"
     inkscape:label="Image"
     inkscape:groupmode="layer">
    <path
       d="M 5.7843135,7.8613522 V 12.000001 H 4.2069715 V 9.0831895 q 0,-0.4263431 -0.017429,-0.7227037 Q 4.172113,8.0589259 4.0936817,7.8717509 4.0152504,7.6845758 3.8540303,7.6013868 3.6971676,7.5129986 3.4095858,7.5129986 q -0.2309368,0 -0.4488016,0.1143848 Q 2.7429193,7.7365689 2.5686273,7.8613522 V 12.000001 H 0.99999996 V 6.1611787 H 2.5686273 V 6.8058928 Q 2.9738561,6.4263433 3.3442264,6.2131717 3.7145968,6 4.1633984,6 4.6470586,6 5.0174289,6.2599655 5.3877993,6.5147315 5.5969497,7.0138651 6.0675379,6.5407281 6.5119823,6.2703641 6.9564267,6 7.3834419,6 8.1764702,6 8.5860562,6.5667246 8.9999996,7.1334492 8.9999996,8.1993072 V 12.000001 H 7.4226576 V 9.0831895 q 0,-0.4315424 -0.017429,-0.727903 Q 7.3921565,8.0589259 7.3137251,7.8717509 7.2396512,7.6845758 7.078431,7.6013868 6.917211,7.5129986 6.6252721,7.5129986 q -0.1960786,0 -0.3834423,0.083189 -0.1873639,0.077989 -0.4575163,0.2651646 z"
       style="font-style:normal;font-variant:normal;font-weight:bold;font-stretch:normal;font-size:9.6084px;line-height:1.25;font-family:sans-serif;-inkscape-font-specification:'sans-serif Bold';fill:#ff1919;fill-opacity:1;stroke:none;stroke-width:0.999996"
       id="path6694"
       inkscape:connector-curvature="0" />
    <path
       d="M 14.999999,12.000001 H 9.9999995 v -1.296443 q 0.5731395,-0.511199 1.1462785,-1.0856387 0.577417,-0.5744401 0.923866,-0.9907773 0.517537,-0.6166009 0.735673,-1.075099 0.218134,-0.458498 0.218134,-0.9064559 0,-0.5375494 -0.282292,-0.8274045 -0.278015,-0.2951252 -0.804106,-0.2951252 -0.393499,0 -0.829769,0.2002635 -0.431994,0.2002635 -0.804107,0.511199 H 10.166808 V 4.4901192 q 0.303679,-0.1633728 0.893927,-0.3267457 0.594525,-0.1633729 1.18905,-0.1633729 1.197605,0 1.826348,0.621871 0.628742,0.6166008 0.628742,1.7496708 0,0.743083 -0.303679,1.4123847 -0.2994,0.6693018 -0.919589,1.3807643 -0.389222,0.4426878 -0.782719,0.8168643 -0.3935,0.3689063 -0.560309,0.5164693 h 2.86142 z"
       style="font-style:normal;font-variant:normal;font-weight:bold;font-stretch:normal;font-size:9.6084px;line-height:1.25;font-family:sans-serif;-inkscape-font-specification:'sans-serif Bold';fill:#ff1919;fill-opacity:1;stroke:none;stroke-width:1"
       id="path6696"
       inkscape:connector-curvature="0" />
  </g>
</svg>
