<?xml version="1.0" encoding="UTF-8" standalone="no"?><!DOCTYPE svg PUBLIC "-//W3C//DTD SVG 1.1//EN" "http://www.w3.org/Graphics/SVG/1.1/DTD/svg11.dtd"><svg width="100%" height="100%" viewBox="0 0 1782 918" version="1.1" xmlns="http://www.w3.org/2000/svg" xmlns:xlink="http://www.w3.org/1999/xlink" xml:space="preserve" xmlns:serif="http://www.serif.com/" style="fill-rule:evenodd;clip-rule:evenodd;stroke-linejoin:round;stroke-miterlimit:2;"><g><path d="M795.974,611.114c-3.699,0.447 -7.678,0.67 -11.938,0.67c-32.181,0 -48.867,-13.717 -48.867,-41.151l0,-175.34c0,-15.506 -16.708,-22.663 -50.719,-22.663l-45.349,0c-35.205,0 -51.912,7.157 -51.912,22.663l-0,175.34c-0,27.434 -16.091,41.151 -48.271,41.151c-32.18,0 -48.271,-13.717 -48.271,-41.151l0,-175.34c0,-15.506 -17.304,-22.663 -51.912,-22.663l-45.349,0c-34.011,0 -50.719,7.157 -50.719,22.663l0,175.34c0,27.434 -16.091,41.151 -48.867,41.151c-33.373,0 -49.463,-13.717 -49.463,-41.151l-0,-174.744c-0,-67.35 51.25,-101.312 153.823,-101.312l45.348,-0c36.996,-0 69.189,11.321 95.41,33.366c26.221,-22.045 57.818,-33.366 95.41,-33.366l45.945,-0c102.571,-0 153.226,33.962 153.226,101.312l0,18.437c33.637,-25.641 86.769,-38.388 159.26,-38.388l173.316,-0c44.054,-0 67.82,-9.863 71.877,-28.427l6.376,-29.006c0,-1.741 0.58,-3.481 0.58,-4.642c0,-17.984 -21.447,-26.685 -64.342,-26.685l-121.836,0c-24.345,0 -37.097,-8.687 -37.097,-26.639c-0,-33.009 21.447,-49.803 53.328,-49.803l122.415,0c99.084,0 147.74,26.639 147.74,79.922c-0,0.771 -0.007,1.548 -0.022,2.333c23.925,-12.083 56.942,-18.122 99.206,-18.122l193.935,-0c95.298,-0 142.925,29.599 142.925,89.466l0,76.678c0,23.804 -14.803,35.384 -43.766,35.384l-336.907,0l0,33.541c0,16.126 19.974,23.866 60.565,23.866l84.404,0c32.859,0 48.967,13.513 48.967,40.539c-0,26.382 -16.108,39.895 -48.967,39.895l-84.404,0c-108.836,0 -163.543,-34.747 -163.543,-103.655l-0,-96.594c-31.322,24.096 -81.254,36.072 -149.403,36.072l-180.852,-0c-45.793,-0 -72.457,11.022 -77.094,33.068l-9.854,47.572l-0,1.16c-0,2.321 1.739,3.481 4.637,3.481l366.916,0c24.907,0 37.071,8.687 37.071,26.639c0,33.009 -22.011,49.803 -53.296,49.803l-428.364,0c-4.096,0 -7.864,-0.223 -11.296,-0.67Zm604.513,-233.233l0,31.608l270.608,0c4.51,0 6.443,-1.935 6.443,-5.805l0,-25.803c0,-15.481 -16.752,-23.222 -50.9,-23.222l-173.962,-0c-34.793,-0 -52.189,7.741 -52.189,23.222Z" style="fill:url(#_Linear1);"/><clipPath id="_clip2"><path d="M795.974,611.114c-3.699,0.447 -7.678,0.67 -11.938,0.67c-32.181,0 -48.867,-13.717 -48.867,-41.151l0,-175.34c0,-15.506 -16.708,-22.663 -50.719,-22.663l-45.349,0c-35.205,0 -51.912,7.157 -51.912,22.663l-0,175.34c-0,27.434 -16.091,41.151 -48.271,41.151c-32.18,0 -48.271,-13.717 -48.271,-41.151l0,-175.34c0,-15.506 -17.304,-22.663 -51.912,-22.663l-45.349,0c-34.011,0 -50.719,7.157 -50.719,22.663l0,175.34c0,27.434 -16.091,41.151 -48.867,41.151c-33.373,0 -49.463,-13.717 -49.463,-41.151l-0,-174.744c-0,-67.35 51.25,-101.312 153.823,-101.312l45.348,-0c36.996,-0 69.189,11.321 95.41,33.366c26.221,-22.045 57.818,-33.366 95.41,-33.366l45.945,-0c102.571,-0 153.226,33.962 153.226,101.312l0,18.437c33.637,-25.641 86.769,-38.388 159.26,-38.388l173.316,-0c44.054,-0 67.82,-9.863 71.877,-28.427l6.376,-29.006c0,-1.741 0.58,-3.481 0.58,-4.642c0,-17.984 -21.447,-26.685 -64.342,-26.685l-121.836,0c-24.345,0 -37.097,-8.687 -37.097,-26.639c-0,-33.009 21.447,-49.803 53.328,-49.803l122.415,0c99.084,0 147.74,26.639 147.74,79.922c-0,0.771 -0.007,1.548 -0.022,2.333c23.925,-12.083 56.942,-18.122 99.206,-18.122l193.935,-0c95.298,-0 142.925,29.599 142.925,89.466l0,76.678c0,23.804 -14.803,35.384 -43.766,35.384l-336.907,0l0,33.541c0,16.126 19.974,23.866 60.565,23.866l84.404,0c32.859,0 48.967,13.513 48.967,40.539c-0,26.382 -16.108,39.895 -48.967,39.895l-84.404,0c-108.836,0 -163.543,-34.747 -163.543,-103.655l-0,-96.594c-31.322,24.096 -81.254,36.072 -149.403,36.072l-180.852,-0c-45.793,-0 -72.457,11.022 -77.094,33.068l-9.854,47.572l-0,1.16c-0,2.321 1.739,3.481 4.637,3.481l366.916,0c24.907,0 37.071,8.687 37.071,26.639c0,33.009 -22.011,49.803 -53.296,49.803l-428.364,0c-4.096,0 -7.864,-0.223 -11.296,-0.67Zm604.513,-233.233l0,31.608l270.608,0c4.51,0 6.443,-1.935 6.443,-5.805l0,-25.803c0,-15.481 -16.752,-23.222 -50.9,-23.222l-173.962,-0c-34.793,-0 -52.189,7.741 -52.189,23.222Z"/></clipPath><g clip-path="url(#_clip2)"><path d="M573.841,197.761l950.489,-0m-950.489,-0l950.489,-0m-950.489,26.03l950.489,-0m-950.489,26.03l950.489,-0m-950.489,26.029l950.489,0m-950.489,26.03l950.489,0m-950.489,26.03l950.489,0m-950.489,26.03l950.489,-0m-950.489,26.03l950.489,-0m-950.489,26.03l950.489,-0m-950.489,26.029l950.489,0m-950.489,26.03l950.489,0m-950.489,26.03l950.489,0m-950.489,26.03l950.489,-0m-950.489,26.03l950.489,-0m-950.489,26.03l950.489,-0m-950.489,26.029l950.489,0m-950.489,26.03l950.489,0" style="fill:#fff;"/><path d="M573.841,197.761c0,-0 101.234,-0.345 237.622,-2.351c24.358,-0.358 49.82,-0.881 76.039,-1.484c36.911,-0.85 75.244,-2.265 114.059,-3.025c15.794,-0.31 31.657,-0.607 47.525,-0.601c15.868,0.006 31.73,0.339 47.524,0.636c45.526,0.854 90.413,2.295 133.069,3.215c19.545,0.422 38.602,0.811 57.029,1.084c136.39,2.021 237.622,2.526 237.622,2.526c0,-0 -101.232,0.504 -237.622,2.525c-18.427,0.273 -37.484,0.662 -57.03,1.084c-42.656,0.921 -87.542,2.361 -133.068,3.216c-15.794,0.297 -31.656,0.63 -47.524,0.636c-15.868,0.006 -31.731,-0.292 -47.525,-0.601c-38.815,-0.76 -77.148,-2.175 -114.059,-3.025c-26.219,-0.604 -51.681,-1.126 -76.039,-1.484c-136.388,-2.006 -237.622,-2.351 -237.622,-2.351Zm0,26.03c0,-0 101.234,-0.345 237.622,-2.351c24.358,-0.358 49.82,-0.881 76.039,-1.485c36.911,-0.849 75.244,-2.264 114.059,-3.025c15.794,-0.309 31.657,-0.606 47.525,-0.6c15.868,0.005 31.73,0.339 47.524,0.635c45.526,0.855 90.413,2.295 133.069,3.216c19.545,0.422 38.602,0.811 57.029,1.084c136.39,2.021 237.622,2.526 237.622,2.526c0,-0 -101.232,0.504 -237.622,2.525c-18.427,0.273 -37.484,0.662 -57.03,1.084c-42.656,0.921 -87.542,2.361 -133.068,3.216c-15.794,0.296 -31.656,0.63 -47.524,0.636c-15.868,0.006 -31.731,-0.292 -47.525,-0.601c-38.815,-0.76 -77.148,-2.175 -114.059,-3.025c-26.219,-0.604 -51.681,-1.126 -76.039,-1.485c-136.388,-2.006 -237.622,-2.35 -237.622,-2.35Zm0,26.03c0,-0 101.234,-0.345 237.622,-2.351c24.358,-0.358 49.82,-0.881 76.039,-1.485c36.911,-0.849 75.244,-2.265 114.059,-3.025c15.794,-0.309 31.657,-0.606 47.525,-0.601c15.868,0.006 31.73,0.34 47.524,0.636c45.526,0.855 90.413,2.295 133.069,3.216c19.545,0.422 38.602,0.811 57.029,1.084c136.39,2.021 237.622,2.526 237.622,2.526c0,-0 -101.232,0.504 -237.622,2.525c-18.427,0.273 -37.484,0.662 -57.03,1.084c-42.656,0.921 -87.542,2.361 -133.068,3.216c-15.794,0.296 -31.656,0.63 -47.524,0.636c-15.868,0.006 -31.731,-0.292 -47.525,-0.601c-38.815,-0.76 -77.148,-2.175 -114.059,-3.025c-26.219,-0.604 -51.681,-1.127 -76.039,-1.485c-136.388,-2.006 -237.622,-2.35 -237.622,-2.35Zm0,26.029c0,0 101.234,-0.344 237.622,-2.35c24.358,-0.359 49.82,-0.881 76.039,-1.485c36.911,-0.85 75.244,-2.265 114.059,-3.025c15.794,-0.309 31.657,-0.607 47.525,-0.601c15.868,0.006 31.73,0.34 47.524,0.636c45.526,0.855 90.413,2.295 133.069,3.216c19.545,0.422 38.602,0.811 57.029,1.084c136.39,2.021 237.622,2.525 237.622,2.525c0,0 -101.232,0.505 -237.622,2.526c-18.427,0.273 -37.484,0.662 -57.03,1.084c-42.656,0.921 -87.542,2.361 -133.068,3.216c-15.794,0.296 -31.656,0.63 -47.524,0.636c-15.868,0.005 -31.731,-0.292 -47.525,-0.601c-38.815,-0.76 -77.148,-2.176 -114.059,-3.025c-26.219,-0.604 -51.681,-1.127 -76.039,-1.485c-136.388,-2.006 -237.622,-2.351 -237.622,-2.351Zm0,26.03c0,0 101.234,-0.344 237.622,-2.35c24.358,-0.359 49.82,-0.881 76.039,-1.485c36.911,-0.85 75.244,-2.265 114.059,-3.025c15.794,-0.309 31.657,-0.607 47.525,-0.601c15.868,0.006 31.73,0.339 47.524,0.636c45.526,0.855 90.413,2.295 133.069,3.216c19.545,0.422 38.602,0.811 57.029,1.084c136.39,2.021 237.622,2.525 237.622,2.525c0,0 -101.232,0.505 -237.622,2.526c-18.427,0.273 -37.484,0.662 -57.03,1.084c-42.656,0.92 -87.542,2.361 -133.068,3.215c-15.794,0.297 -31.656,0.631 -47.524,0.636c-15.868,0.006 -31.731,-0.291 -47.525,-0.601c-38.815,-0.76 -77.148,-2.175 -114.059,-3.025c-26.219,-0.603 -51.681,-1.126 -76.039,-1.484c-136.388,-2.006 -237.622,-2.351 -237.622,-2.351Zm0,26.03c0,0 101.234,-0.345 237.622,-2.351c24.358,-0.358 49.82,-0.881 76.039,-1.484c36.911,-0.85 75.244,-2.265 114.059,-3.025c15.794,-0.309 31.657,-0.607 47.525,-0.601c15.868,0.006 31.73,0.339 47.524,0.636c45.526,0.854 90.413,2.295 133.069,3.216c19.545,0.422 38.602,0.811 57.029,1.084c136.39,2.021 237.622,2.525 237.622,2.525c0,0 -101.232,0.504 -237.622,2.525c-18.427,0.274 -37.484,0.663 -57.03,1.084c-42.656,0.921 -87.542,2.362 -133.068,3.216c-15.794,0.297 -31.656,0.63 -47.524,0.636c-15.868,0.006 -31.731,-0.291 -47.525,-0.601c-38.815,-0.76 -77.148,-2.175 -114.059,-3.025c-26.219,-0.603 -51.681,-1.126 -76.039,-1.484c-136.388,-2.006 -237.622,-2.351 -237.622,-2.351Zm0,26.03c0,-0 101.234,-0.345 237.622,-2.351c24.358,-0.358 49.82,-0.881 76.039,-1.484c36.911,-0.85 75.244,-2.265 114.059,-3.025c15.794,-0.31 31.657,-0.607 47.525,-0.601c15.868,0.006 31.73,0.339 47.524,0.636c45.526,0.854 90.413,2.295 133.069,3.215c19.545,0.422 38.602,0.811 57.029,1.084c136.39,2.021 237.622,2.526 237.622,2.526c0,-0 -101.232,0.504 -237.622,2.525c-18.427,0.273 -37.484,0.662 -57.03,1.084c-42.656,0.921 -87.542,2.361 -133.068,3.216c-15.794,0.297 -31.656,0.63 -47.524,0.636c-15.868,0.006 -31.731,-0.292 -47.525,-0.601c-38.815,-0.76 -77.148,-2.175 -114.059,-3.025c-26.219,-0.604 -51.681,-1.126 -76.039,-1.484c-136.388,-2.006 -237.622,-2.351 -237.622,-2.351Zm0,26.03c0,-0 101.234,-0.345 237.622,-2.351c24.358,-0.358 49.82,-0.881 76.039,-1.485c36.911,-0.849 75.244,-2.264 114.059,-3.025c15.794,-0.309 31.657,-0.606 47.525,-0.6c15.868,0.005 31.73,0.339 47.524,0.635c45.526,0.855 90.413,2.295 133.069,3.216c19.545,0.422 38.602,0.811 57.029,1.084c136.39,2.021 237.622,2.526 237.622,2.526c0,-0 -101.232,0.504 -237.622,2.525c-18.427,0.273 -37.484,0.662 -57.03,1.084c-42.656,0.921 -87.542,2.361 -133.068,3.216c-15.794,0.296 -31.656,0.63 -47.524,0.636c-15.868,0.006 -31.731,-0.292 -47.525,-0.601c-38.815,-0.76 -77.148,-2.175 -114.059,-3.025c-26.219,-0.604 -51.681,-1.126 -76.039,-1.485c-136.388,-2.006 -237.622,-2.35 -237.622,-2.35Zm0,26.03c0,-0 101.234,-0.345 237.622,-2.351c24.358,-0.358 49.82,-0.881 76.039,-1.485c36.911,-0.849 75.244,-2.265 114.059,-3.025c15.794,-0.309 31.657,-0.606 47.525,-0.601c15.868,0.006 31.73,0.34 47.524,0.636c45.526,0.855 90.413,2.295 133.069,3.216c19.545,0.422 38.602,0.811 57.029,1.084c136.39,2.021 237.622,2.526 237.622,2.526c0,-0 -101.232,0.504 -237.622,2.525c-18.427,0.273 -37.484,0.662 -57.03,1.084c-42.656,0.921 -87.542,2.361 -133.068,3.216c-15.794,0.296 -31.656,0.63 -47.524,0.636c-15.868,0.006 -31.731,-0.292 -47.525,-0.601c-38.815,-0.76 -77.148,-2.175 -114.059,-3.025c-26.219,-0.604 -51.681,-1.127 -76.039,-1.485c-136.388,-2.006 -237.622,-2.35 -237.622,-2.35Zm0,26.029c0,0 101.234,-0.344 237.622,-2.35c24.358,-0.359 49.82,-0.881 76.039,-1.485c36.911,-0.85 75.244,-2.265 114.059,-3.025c15.794,-0.309 31.657,-0.607 47.525,-0.601c15.868,0.006 31.73,0.34 47.524,0.636c45.526,0.855 90.413,2.295 133.069,3.216c19.545,0.422 38.602,0.811 57.029,1.084c136.39,2.021 237.622,2.525 237.622,2.525c0,0 -101.232,0.505 -237.622,2.526c-18.427,0.273 -37.484,0.662 -57.03,1.084c-42.656,0.921 -87.542,2.361 -133.068,3.216c-15.794,0.296 -31.656,0.63 -47.524,0.636c-15.868,0.005 -31.731,-0.292 -47.525,-0.601c-38.815,-0.76 -77.148,-2.176 -114.059,-3.025c-26.219,-0.604 -51.681,-1.127 -76.039,-1.485c-136.388,-2.006 -237.622,-2.351 -237.622,-2.351Zm0,26.03c0,0 101.234,-0.344 237.622,-2.35c24.358,-0.359 49.82,-0.881 76.039,-1.485c36.911,-0.85 75.244,-2.265 114.059,-3.025c15.794,-0.309 31.657,-0.607 47.525,-0.601c15.868,0.006 31.73,0.339 47.524,0.636c45.526,0.855 90.413,2.295 133.069,3.216c19.545,0.422 38.602,0.811 57.029,1.084c136.39,2.021 237.622,2.525 237.622,2.525c0,0 -101.232,0.505 -237.622,2.526c-18.427,0.273 -37.484,0.662 -57.03,1.084c-42.656,0.92 -87.542,2.361 -133.068,3.215c-15.794,0.297 -31.656,0.631 -47.524,0.636c-15.868,0.006 -31.731,-0.291 -47.525,-0.601c-38.815,-0.76 -77.148,-2.175 -114.059,-3.025c-26.219,-0.603 -51.681,-1.126 -76.039,-1.484c-136.388,-2.006 -237.622,-2.351 -237.622,-2.351Zm0,26.03c0,0 101.234,-0.345 237.622,-2.351c24.358,-0.358 49.82,-0.881 76.039,-1.484c36.911,-0.85 75.244,-2.265 114.059,-3.025c15.794,-0.309 31.657,-0.607 47.525,-0.601c15.868,0.006 31.73,0.339 47.524,0.636c45.526,0.854 90.413,2.295 133.069,3.216c19.545,0.422 38.602,0.811 57.029,1.084c136.39,2.021 237.622,2.525 237.622,2.525c0,0 -101.232,0.504 -237.622,2.525c-18.427,0.274 -37.484,0.663 -57.03,1.084c-42.656,0.921 -87.542,2.362 -133.068,3.216c-15.794,0.297 -31.656,0.63 -47.524,0.636c-15.868,0.006 -31.731,-0.291 -47.525,-0.601c-38.815,-0.76 -77.148,-2.175 -114.059,-3.025c-26.219,-0.603 -51.681,-1.126 -76.039,-1.484c-136.388,-2.006 -237.622,-2.351 -237.622,-2.351Zm0,26.03c0,-0 101.234,-0.345 237.622,-2.351c24.358,-0.358 49.82,-0.881 76.039,-1.484c36.911,-0.85 75.244,-2.265 114.059,-3.025c15.794,-0.31 31.657,-0.607 47.525,-0.601c15.868,0.006 31.73,0.339 47.524,0.636c45.526,0.854 90.413,2.295 133.069,3.215c19.545,0.422 38.602,0.811 57.029,1.084c136.39,2.021 237.622,2.526 237.622,2.526c0,-0 -101.232,0.504 -237.622,2.525c-18.427,0.273 -37.484,0.662 -57.03,1.084c-42.656,0.921 -87.542,2.361 -133.068,3.216c-15.794,0.297 -31.656,0.63 -47.524,0.636c-15.868,0.006 -31.731,-0.292 -47.525,-0.601c-38.815,-0.76 -77.148,-2.175 -114.059,-3.025c-26.219,-0.604 -51.681,-1.126 -76.039,-1.484c-136.388,-2.006 -237.622,-2.351 -237.622,-2.351Zm0,26.03c0,-0 101.234,-0.345 237.622,-2.351c24.358,-0.358 49.82,-0.881 76.039,-1.485c36.911,-0.849 75.244,-2.264 114.059,-3.025c15.794,-0.309 31.657,-0.606 47.525,-0.6c15.868,0.005 31.73,0.339 47.524,0.635c45.526,0.855 90.413,2.295 133.069,3.216c19.545,0.422 38.602,0.811 57.029,1.084c136.39,2.021 237.622,2.526 237.622,2.526c0,-0 -101.232,0.504 -237.622,2.525c-18.427,0.273 -37.484,0.662 -57.03,1.084c-42.656,0.921 -87.542,2.361 -133.068,3.216c-15.794,0.296 -31.656,0.63 -47.524,0.636c-15.868,0.006 -31.731,-0.292 -47.525,-0.601c-38.815,-0.76 -77.148,-2.175 -114.059,-3.025c-26.219,-0.604 -51.681,-1.126 -76.039,-1.485c-136.388,-2.006 -237.622,-2.35 -237.622,-2.35Zm0,26.03c0,-0 101.234,-0.345 237.622,-2.351c24.358,-0.358 49.82,-0.881 76.039,-1.485c36.911,-0.849 75.244,-2.265 114.059,-3.025c15.794,-0.309 31.657,-0.606 47.525,-0.601c15.868,0.006 31.73,0.34 47.524,0.636c45.526,0.855 90.413,2.295 133.069,3.216c19.545,0.422 38.602,0.811 57.029,1.084c136.39,2.021 237.622,2.526 237.622,2.526c0,-0 -101.232,0.504 -237.622,2.525c-18.427,0.273 -37.484,0.662 -57.03,1.084c-42.656,0.921 -87.542,2.361 -133.068,3.216c-15.794,0.296 -31.656,0.63 -47.524,0.636c-15.868,0.006 -31.731,-0.292 -47.525,-0.601c-38.815,-0.76 -77.148,-2.175 -114.059,-3.025c-26.219,-0.604 -51.681,-1.127 -76.039,-1.485c-136.388,-2.006 -237.622,-2.35 -237.622,-2.35Zm0,26.029c0,0 101.234,-0.344 237.622,-2.35c24.358,-0.359 49.82,-0.881 76.039,-1.485c36.911,-0.85 75.244,-2.265 114.059,-3.025c15.794,-0.309 31.657,-0.607 47.525,-0.601c15.868,0.006 31.73,0.34 47.524,0.636c45.526,0.855 90.413,2.295 133.069,3.216c19.545,0.422 38.602,0.811 57.029,1.084c136.39,2.021 237.622,2.525 237.622,2.525c0,0 -101.232,0.505 -237.622,2.526c-18.427,0.273 -37.484,0.662 -57.03,1.084c-42.656,0.921 -87.542,2.361 -133.068,3.216c-15.794,0.296 -31.656,0.63 -47.524,0.636c-15.868,0.005 -31.731,-0.292 -47.525,-0.601c-38.815,-0.76 -77.148,-2.176 -114.059,-3.025c-26.219,-0.604 -51.681,-1.127 -76.039,-1.485c-136.388,-2.006 -237.622,-2.351 -237.622,-2.351Zm0,26.03c0,0 101.234,-0.344 237.622,-2.35c24.358,-0.359 49.82,-0.881 76.039,-1.485c36.911,-0.85 75.244,-2.265 114.059,-3.025c15.794,-0.309 31.657,-0.607 47.525,-0.601c15.868,0.006 31.73,0.339 47.524,0.636c45.526,0.855 90.413,2.295 133.069,3.216c19.545,0.422 38.602,0.811 57.029,1.084c136.39,2.021 237.622,2.525 237.622,2.525c0,0 -101.232,0.505 -237.622,2.526c-18.427,0.273 -37.484,0.662 -57.03,1.084c-42.656,0.92 -87.542,2.361 -133.068,3.215c-15.794,0.297 -31.656,0.631 -47.524,0.636c-15.868,0.006 -31.731,-0.291 -47.525,-0.601c-38.815,-0.76 -77.148,-2.175 -114.059,-3.025c-26.219,-0.603 -51.681,-1.126 -76.039,-1.484c-136.388,-2.006 -237.622,-2.351 -237.622,-2.351Z" style="fill:#fff;"/></g><path d="M488.673,915.65c-14.207,1.41 -28.609,2.131 -43.173,2.131c-245.878,0 -445.5,-205.622 -445.5,-458.89c0,-253.269 199.622,-458.891 445.5,-458.891c14.564,0 28.966,0.721 43.173,2.131c-225.653,22.395 -402.327,218.493 -402.327,456.76c0,238.267 176.674,434.364 402.327,456.759Z" style="fill:#faa33c;"/></g><defs><linearGradient id="_Linear1" x1="0" y1="0" x2="1" y2="0" gradientUnits="userSpaceOnUse" gradientTransform="matrix(1487.01,0,0,1487.01,263.097,445.889)"><stop offset="0" style="stop-color:#ca2136;stop-opacity:1"/><stop offset="1" style="stop-color:#2c2255;stop-opacity:1"/></linearGradient></defs></svg>